<mxfile host="app.diagrams.net" agent="Mozilla/5.0 (Macintosh; Intel Mac OS X 10_15_7) AppleWebKit/537.36 (KHTML, like Gecko) Chrome/137.0.0.0 Safari/537.36" version="27.1.6">
  <diagram name="Page-1" id="zcAIFREdVi--cEdZfyfS">
    <mxGraphModel dx="885" dy="566" grid="0" gridSize="10" guides="1" tooltips="1" connect="1" arrows="1" fold="1" page="1" pageScale="1" pageWidth="850" pageHeight="1100" background="none" math="0" shadow="0">
      <root>
        <mxCell id="0" />
        <mxCell id="1" parent="0" />
        <mxCell id="Qb8Gtp5yddX3TrwbwCgU-4" value="" style="shape=folder;fontStyle=1;spacingTop=10;tabWidth=230;tabHeight=20;tabPosition=left;html=1;whiteSpace=wrap;" vertex="1" parent="1">
          <mxGeometry x="130" y="30" width="540" height="540" as="geometry" />
        </mxCell>
        <mxCell id="Qb8Gtp5yddX3TrwbwCgU-58" style="rounded=0;orthogonalLoop=1;jettySize=auto;html=1;exitX=0.5;exitY=0.5;exitDx=0;exitDy=0;exitPerimeter=0;entryX=0;entryY=0.5;entryDx=0;entryDy=0;endArrow=none;startFill=0;" edge="1" parent="1" source="Qb8Gtp5yddX3TrwbwCgU-1" target="Qb8Gtp5yddX3TrwbwCgU-8">
          <mxGeometry relative="1" as="geometry" />
        </mxCell>
        <mxCell id="Qb8Gtp5yddX3TrwbwCgU-60" style="rounded=0;orthogonalLoop=1;jettySize=auto;html=1;exitX=0.5;exitY=0.5;exitDx=0;exitDy=0;exitPerimeter=0;entryX=0;entryY=0.5;entryDx=0;entryDy=0;endArrow=none;startFill=0;" edge="1" parent="1" source="Qb8Gtp5yddX3TrwbwCgU-1" target="Qb8Gtp5yddX3TrwbwCgU-59">
          <mxGeometry relative="1" as="geometry" />
        </mxCell>
        <mxCell id="Qb8Gtp5yddX3TrwbwCgU-1" value="Gost" style="shape=umlActor;verticalLabelPosition=bottom;verticalAlign=top;html=1;outlineConnect=0;" vertex="1" parent="1">
          <mxGeometry x="50" y="440" width="30" height="60" as="geometry" />
        </mxCell>
        <mxCell id="Qb8Gtp5yddX3TrwbwCgU-44" style="rounded=0;orthogonalLoop=1;jettySize=auto;html=1;exitX=0.5;exitY=0.5;exitDx=0;exitDy=0;exitPerimeter=0;entryX=0;entryY=0.5;entryDx=0;entryDy=0;endArrow=none;startFill=0;" edge="1" parent="1" source="Qb8Gtp5yddX3TrwbwCgU-2" target="Qb8Gtp5yddX3TrwbwCgU-7">
          <mxGeometry relative="1" as="geometry" />
        </mxCell>
        <mxCell id="Qb8Gtp5yddX3TrwbwCgU-45" style="rounded=0;orthogonalLoop=1;jettySize=auto;html=1;exitX=0.5;exitY=0.5;exitDx=0;exitDy=0;exitPerimeter=0;entryX=0;entryY=0.5;entryDx=0;entryDy=0;endArrow=none;startFill=0;" edge="1" parent="1" source="Qb8Gtp5yddX3TrwbwCgU-2" target="Qb8Gtp5yddX3TrwbwCgU-9">
          <mxGeometry relative="1" as="geometry" />
        </mxCell>
        <mxCell id="Qb8Gtp5yddX3TrwbwCgU-55" style="rounded=0;orthogonalLoop=1;jettySize=auto;html=1;exitX=0.5;exitY=0.5;exitDx=0;exitDy=0;exitPerimeter=0;entryX=0;entryY=0.5;entryDx=0;entryDy=0;endArrow=none;startFill=0;" edge="1" parent="1" source="Qb8Gtp5yddX3TrwbwCgU-2" target="Qb8Gtp5yddX3TrwbwCgU-11">
          <mxGeometry relative="1" as="geometry" />
        </mxCell>
        <mxCell id="Qb8Gtp5yddX3TrwbwCgU-66" style="rounded=0;orthogonalLoop=1;jettySize=auto;html=1;exitX=0.5;exitY=0.5;exitDx=0;exitDy=0;exitPerimeter=0;entryX=0;entryY=0.5;entryDx=0;entryDy=0;endArrow=none;startFill=0;" edge="1" parent="1" source="Qb8Gtp5yddX3TrwbwCgU-2" target="Qb8Gtp5yddX3TrwbwCgU-12">
          <mxGeometry relative="1" as="geometry" />
        </mxCell>
        <mxCell id="Qb8Gtp5yddX3TrwbwCgU-2" value="Registrovan&amp;nbsp;&lt;div&gt;korisnik&lt;/div&gt;" style="shape=umlActor;verticalLabelPosition=bottom;verticalAlign=top;html=1;outlineConnect=0;" vertex="1" parent="1">
          <mxGeometry x="50" y="140" width="30" height="60" as="geometry" />
        </mxCell>
        <mxCell id="Qb8Gtp5yddX3TrwbwCgU-5" value="Admin" style="shape=umlActor;verticalLabelPosition=bottom;verticalAlign=top;html=1;outlineConnect=0;" vertex="1" parent="1">
          <mxGeometry x="760" y="160" width="30" height="60" as="geometry" />
        </mxCell>
        <mxCell id="Qb8Gtp5yddX3TrwbwCgU-53" style="rounded=0;orthogonalLoop=1;jettySize=auto;html=1;exitX=0.5;exitY=0.5;exitDx=0;exitDy=0;exitPerimeter=0;entryX=1;entryY=0.5;entryDx=0;entryDy=0;endArrow=none;startFill=0;" edge="1" parent="1" source="Qb8Gtp5yddX3TrwbwCgU-6" target="Qb8Gtp5yddX3TrwbwCgU-10">
          <mxGeometry relative="1" as="geometry" />
        </mxCell>
        <mxCell id="Qb8Gtp5yddX3TrwbwCgU-6" value="Sistem za placanje" style="shape=umlActor;verticalLabelPosition=bottom;verticalAlign=top;html=1;outlineConnect=0;" vertex="1" parent="1">
          <mxGeometry x="760" y="380" width="30" height="60" as="geometry" />
        </mxCell>
        <mxCell id="Qb8Gtp5yddX3TrwbwCgU-7" value="Prijava korisnika" style="ellipse;whiteSpace=wrap;html=1;" vertex="1" parent="1">
          <mxGeometry x="175" y="170" width="80" height="40" as="geometry" />
        </mxCell>
        <mxCell id="Qb8Gtp5yddX3TrwbwCgU-8" value="Registracija korisnika" style="ellipse;whiteSpace=wrap;html=1;" vertex="1" parent="1">
          <mxGeometry x="185" y="490" width="90" height="40" as="geometry" />
        </mxCell>
        <mxCell id="Qb8Gtp5yddX3TrwbwCgU-9" value="Odjava korisnika" style="ellipse;whiteSpace=wrap;html=1;" vertex="1" parent="1">
          <mxGeometry x="165" y="70" width="90" height="40" as="geometry" />
        </mxCell>
        <mxCell id="Qb8Gtp5yddX3TrwbwCgU-10" value="Placanje rezervacije&amp;nbsp;" style="ellipse;whiteSpace=wrap;html=1;" vertex="1" parent="1">
          <mxGeometry x="480" y="390" width="110" height="40" as="geometry" />
        </mxCell>
        <mxCell id="Qb8Gtp5yddX3TrwbwCgU-64" style="rounded=0;orthogonalLoop=1;jettySize=auto;html=1;exitX=1;exitY=0.5;exitDx=0;exitDy=0;endArrow=none;startFill=0;" edge="1" parent="1" source="Qb8Gtp5yddX3TrwbwCgU-11">
          <mxGeometry relative="1" as="geometry">
            <mxPoint x="760" y="180" as="targetPoint" />
          </mxGeometry>
        </mxCell>
        <mxCell id="Qb8Gtp5yddX3TrwbwCgU-11" value="Izmena naloga" style="ellipse;whiteSpace=wrap;html=1;" vertex="1" parent="1">
          <mxGeometry x="485" y="70" width="100" height="40" as="geometry" />
        </mxCell>
        <mxCell id="Qb8Gtp5yddX3TrwbwCgU-12" value="Rezervisanje sale" style="ellipse;whiteSpace=wrap;html=1;" vertex="1" parent="1">
          <mxGeometry x="223" y="240" width="90" height="40" as="geometry" />
        </mxCell>
        <mxCell id="Qb8Gtp5yddX3TrwbwCgU-15" value="Dodavanje, izmena i brisanje sala" style="ellipse;whiteSpace=wrap;html=1;" vertex="1" parent="1">
          <mxGeometry x="510" y="150" width="130" height="50" as="geometry" />
        </mxCell>
        <mxCell id="Qb8Gtp5yddX3TrwbwCgU-16" value="Odabir dostupnih termina" style="ellipse;whiteSpace=wrap;html=1;" vertex="1" parent="1">
          <mxGeometry x="370" y="290" width="120" height="50" as="geometry" />
        </mxCell>
        <mxCell id="Qb8Gtp5yddX3TrwbwCgU-17" value="Odabir datuma i vremena&amp;nbsp;" style="ellipse;whiteSpace=wrap;html=1;" vertex="1" parent="1">
          <mxGeometry x="365" y="180" width="120" height="50" as="geometry" />
        </mxCell>
        <mxCell id="Qb8Gtp5yddX3TrwbwCgU-19" value="Pregled svih korisnika i rezervacija" style="ellipse;whiteSpace=wrap;html=1;" vertex="1" parent="1">
          <mxGeometry x="510" y="270" width="130" height="60" as="geometry" />
        </mxCell>
        <mxCell id="Qb8Gtp5yddX3TrwbwCgU-20" value="Dodavanje, izmena i brisanje termina" style="ellipse;whiteSpace=wrap;html=1;" vertex="1" parent="1">
          <mxGeometry x="510" y="210" width="130" height="50" as="geometry" />
        </mxCell>
        <mxCell id="Qb8Gtp5yddX3TrwbwCgU-27" value="&amp;lt;&amp;lt;include&amp;gt;&amp;gt;" style="html=1;verticalAlign=bottom;labelBackgroundColor=none;endArrow=open;endFill=0;dashed=1;rounded=0;exitX=1;exitY=0.5;exitDx=0;exitDy=0;entryX=0.5;entryY=0;entryDx=0;entryDy=0;" edge="1" parent="1" source="Qb8Gtp5yddX3TrwbwCgU-12" target="Qb8Gtp5yddX3TrwbwCgU-16">
          <mxGeometry x="-0.1291" y="-18" width="160" relative="1" as="geometry">
            <mxPoint x="720" y="60" as="sourcePoint" />
            <mxPoint x="855" y="30" as="targetPoint" />
            <mxPoint as="offset" />
          </mxGeometry>
        </mxCell>
        <mxCell id="Qb8Gtp5yddX3TrwbwCgU-38" style="rounded=0;orthogonalLoop=1;jettySize=auto;html=1;exitX=1;exitY=0.5;exitDx=0;exitDy=0;entryX=0;entryY=0.3333333333333333;entryDx=0;entryDy=0;entryPerimeter=0;endArrow=none;startFill=0;" edge="1" parent="1" source="Qb8Gtp5yddX3TrwbwCgU-20" target="Qb8Gtp5yddX3TrwbwCgU-5">
          <mxGeometry relative="1" as="geometry" />
        </mxCell>
        <mxCell id="Qb8Gtp5yddX3TrwbwCgU-40" style="rounded=0;orthogonalLoop=1;jettySize=auto;html=1;exitX=1;exitY=0.5;exitDx=0;exitDy=0;entryX=0;entryY=0.3333333333333333;entryDx=0;entryDy=0;entryPerimeter=0;endArrow=none;startFill=0;" edge="1" parent="1" source="Qb8Gtp5yddX3TrwbwCgU-15" target="Qb8Gtp5yddX3TrwbwCgU-5">
          <mxGeometry relative="1" as="geometry" />
        </mxCell>
        <mxCell id="Qb8Gtp5yddX3TrwbwCgU-41" style="rounded=0;orthogonalLoop=1;jettySize=auto;html=1;exitX=1;exitY=0.5;exitDx=0;exitDy=0;entryX=0;entryY=0.3333333333333333;entryDx=0;entryDy=0;entryPerimeter=0;endArrow=none;startFill=0;" edge="1" parent="1" source="Qb8Gtp5yddX3TrwbwCgU-19" target="Qb8Gtp5yddX3TrwbwCgU-5">
          <mxGeometry relative="1" as="geometry" />
        </mxCell>
        <mxCell id="Qb8Gtp5yddX3TrwbwCgU-43" value="Rezervisanje sale u sportskoj dvorani" style="text;align=center;fontStyle=1;verticalAlign=middle;spacingLeft=3;spacingRight=3;strokeColor=none;rotatable=0;points=[[0,0.5],[1,0.5]];portConstraint=eastwest;html=1;" vertex="1" parent="1">
          <mxGeometry x="200" y="28" width="80" height="26" as="geometry" />
        </mxCell>
        <mxCell id="Qb8Gtp5yddX3TrwbwCgU-59" value="Pregled sala i dostupnih termina" style="ellipse;whiteSpace=wrap;html=1;" vertex="1" parent="1">
          <mxGeometry x="175" y="405" width="120" height="50" as="geometry" />
        </mxCell>
        <mxCell id="Qb8Gtp5yddX3TrwbwCgU-61" style="rounded=0;orthogonalLoop=1;jettySize=auto;html=1;exitX=0.5;exitY=0.5;exitDx=0;exitDy=0;exitPerimeter=0;entryX=0;entryY=0.5;entryDx=0;entryDy=0;endArrow=none;startFill=0;" edge="1" parent="1" source="Qb8Gtp5yddX3TrwbwCgU-2" target="Qb8Gtp5yddX3TrwbwCgU-59">
          <mxGeometry relative="1" as="geometry" />
        </mxCell>
        <mxCell id="Qb8Gtp5yddX3TrwbwCgU-63" style="rounded=0;orthogonalLoop=1;jettySize=auto;html=1;entryX=0.5;entryY=0;entryDx=0;entryDy=0;entryPerimeter=0;endArrow=block;endFill=1;" edge="1" parent="1" target="Qb8Gtp5yddX3TrwbwCgU-1">
          <mxGeometry relative="1" as="geometry">
            <mxPoint x="65" y="240" as="sourcePoint" />
            <mxPoint x="50" y="370" as="targetPoint" />
          </mxGeometry>
        </mxCell>
        <mxCell id="Qb8Gtp5yddX3TrwbwCgU-67" value="&amp;lt;&amp;lt;include&amp;gt;&amp;gt;" style="html=1;verticalAlign=bottom;labelBackgroundColor=none;endArrow=open;endFill=0;dashed=1;rounded=0;exitX=1;exitY=0.5;exitDx=0;exitDy=0;entryX=0.5;entryY=1;entryDx=0;entryDy=0;" edge="1" parent="1" source="Qb8Gtp5yddX3TrwbwCgU-12" target="Qb8Gtp5yddX3TrwbwCgU-17">
          <mxGeometry x="-0.1873" y="8" width="160" relative="1" as="geometry">
            <mxPoint x="420" y="280" as="sourcePoint" />
            <mxPoint x="507" y="320" as="targetPoint" />
            <mxPoint as="offset" />
          </mxGeometry>
        </mxCell>
        <mxCell id="Qb8Gtp5yddX3TrwbwCgU-68" value="&amp;lt;&amp;lt;extend&amp;gt;&amp;gt;" style="html=1;verticalAlign=bottom;labelBackgroundColor=none;endArrow=none;endFill=0;dashed=1;rounded=0;exitX=0.5;exitY=1;exitDx=0;exitDy=0;entryX=0;entryY=0.5;entryDx=0;entryDy=0;startArrow=open;startFill=0;" edge="1" parent="1" source="Qb8Gtp5yddX3TrwbwCgU-12" target="Qb8Gtp5yddX3TrwbwCgU-10">
          <mxGeometry x="-0.1314" y="-18" width="160" relative="1" as="geometry">
            <mxPoint x="263" y="340" as="sourcePoint" />
            <mxPoint x="370" y="370" as="targetPoint" />
            <mxPoint as="offset" />
          </mxGeometry>
        </mxCell>
        <mxCell id="Qb8Gtp5yddX3TrwbwCgU-70" value="Pregled, izmena i otkazivanje rezervacije" style="ellipse;whiteSpace=wrap;html=1;" vertex="1" parent="1">
          <mxGeometry x="320" y="400" width="130" height="60" as="geometry" />
        </mxCell>
        <mxCell id="Qb8Gtp5yddX3TrwbwCgU-71" style="rounded=0;orthogonalLoop=1;jettySize=auto;html=1;exitX=0;exitY=0;exitDx=0;exitDy=0;entryX=0.5;entryY=0.5;entryDx=0;entryDy=0;entryPerimeter=0;endArrow=none;startFill=0;" edge="1" parent="1" source="Qb8Gtp5yddX3TrwbwCgU-70" target="Qb8Gtp5yddX3TrwbwCgU-2">
          <mxGeometry relative="1" as="geometry" />
        </mxCell>
        <mxCell id="Qb8Gtp5yddX3TrwbwCgU-72" value="Resetovanje lozinke" style="ellipse;whiteSpace=wrap;html=1;" vertex="1" parent="1">
          <mxGeometry x="320" y="130" width="100" height="40" as="geometry" />
        </mxCell>
        <mxCell id="Qb8Gtp5yddX3TrwbwCgU-73" value="&amp;lt;&amp;lt;extend&amp;gt;&amp;gt;" style="html=1;verticalAlign=bottom;labelBackgroundColor=none;endArrow=none;endFill=0;dashed=1;rounded=0;exitX=1;exitY=0;exitDx=0;exitDy=0;entryX=0;entryY=0.5;entryDx=0;entryDy=0;startArrow=open;startFill=0;" edge="1" parent="1" source="Qb8Gtp5yddX3TrwbwCgU-7" target="Qb8Gtp5yddX3TrwbwCgU-72">
          <mxGeometry x="-0.1314" y="-18" width="160" relative="1" as="geometry">
            <mxPoint x="400" y="360" as="sourcePoint" />
            <mxPoint x="612" y="490" as="targetPoint" />
            <mxPoint as="offset" />
          </mxGeometry>
        </mxCell>
      </root>
    </mxGraphModel>
  </diagram>
</mxfile>
